<svg width="379" height="344" viewBox="0 0 379 344" fill="none" xmlns="http://www.w3.org/2000/svg">
<path d="M279.7 105.126C279.7 105.126 292.611 125.603 288 131.148C283.389 136.692 322.593 136.831 322.593 136.831C322.593 136.831 316.704 107.043 318.437 100.187L279.7 105.126Z" fill="#FFB8B8"/>
<path opacity="0.1" d="M279.7 105.126C279.7 105.126 292.611 125.603 288 131.148C283.389 136.692 322.593 136.831 322.593 136.831C322.593 136.831 316.704 107.043 318.437 100.187L279.7 105.126Z" fill="black"/>
<path d="M300.333 112.547C322.692 112.547 340.818 94.4219 340.818 72.063C340.818 49.704 322.692 31.5785 300.333 31.5785C277.974 31.5785 259.849 49.704 259.849 72.063C259.849 94.4219 277.974 112.547 300.333 112.547Z" fill="#FB8F8A"/>
<path d="M211.61 291.5V315.5L187.61 310.5L189.61 293.5L211.61 291.5Z" fill="#FFB8B8"/>
<path d="M126.611 295.5L59.6106 306.5L76.6106 331.5C76.6106 331.5 123.611 315.5 135.611 315.5C147.611 315.5 126.611 295.5 126.611 295.5Z" fill="#FFB8B8"/>
<path d="M278.611 247.5C278.611 247.5 228.611 189.5 212.611 192.5C196.611 195.5 189.611 213.5 189.611 213.5L180.611 302.5C180.611 302.5 212.611 305.5 212.611 302.5C212.611 299.5 218.611 235.5 218.611 235.5C218.611 235.5 265.611 339.5 290.611 270.5L278.611 247.5Z" fill="#2F2E41"/>
<path d="M359.611 286.5C359.611 286.5 358.611 336.5 328.611 339.5C298.611 342.5 265.611 319.5 265.611 319.5L211.611 293.63C211.611 293.63 147.611 327.5 128.611 318.5C128.611 318.5 108.611 297.5 121.611 291.5C134.611 285.5 122.611 291.5 122.611 291.5L199.611 251.5C199.611 251.5 214.611 247.5 240.611 258.5C266.611 269.5 301.611 274.5 301.611 274.5L359.611 286.5Z" fill="#212529"/>
<path d="M297.552 115.5C314.121 115.5 327.552 102.069 327.552 85.5C327.552 68.9315 314.121 55.5 297.552 55.5C280.984 55.5 267.552 68.9315 267.552 85.5C267.552 102.069 280.984 115.5 297.552 115.5Z" fill="#FFB8B8"/>
<path d="M266.611 169.5L268.611 211.5C268.611 211.5 267.611 266.5 276.611 270.5C281.161 272.52 290.301 276.58 298.751 281.02C305.091 284.34 311.041 287.86 314.361 290.89C315.241 291.639 316 292.519 316.611 293.5C320.611 300.5 346.611 299.5 352.611 294.5C358.611 289.5 354.611 300.5 359.611 302.5C364.451 304.44 371.161 288.58 367.051 264.9C366.921 264.11 366.771 263.31 366.611 262.5C362.021 239.55 369.231 184.58 368.121 163.34C368.056 161.717 367.886 160.101 367.611 158.5C364.611 142.5 326.331 109.94 319.171 123.81C310.351 140.93 290.091 125.29 286.611 117.5C266.611 116.5 259.611 140.5 259.611 140.5L266.611 169.5Z" fill="#1B1F3B"/>
<path d="M185.611 306.5C185.611 306.5 201.611 312.5 206.611 311.5C211.611 310.5 216.611 314.5 216.611 320.5C216.611 326.5 222.611 340.5 213.611 341.5C204.611 342.5 167.611 340.5 159.611 343.5C159.611 343.5 123.611 344.5 126.611 329.5C129.611 314.5 144.611 315.5 144.611 315.5C144.611 315.5 185.611 313.5 185.611 306.5Z" fill="#212529"/>
<path d="M68.6106 309.5C68.6106 309.5 66.6106 303.5 63.6106 303.5C60.6106 303.5 36.6106 307.5 33.6106 306.5C30.6106 305.5 -4.38942 303.5 1.61058 320.5C7.61058 337.5 27.6106 339.5 27.6106 339.5C27.6106 339.5 63.6106 335.5 68.6106 336.5C73.6106 337.5 91.6106 336.5 88.6106 331.5C85.6106 326.5 66.6106 317.5 68.6106 309.5Z" fill="#212529"/>
<path d="M159.637 165.863L154.15 188.494C154.089 188.746 154.099 189.01 154.178 189.258L179.064 267.028C179.163 267.336 179.364 267.601 179.634 267.778C179.904 267.956 180.227 268.035 180.549 268.004C180.871 267.972 181.172 267.831 181.403 267.604C181.633 267.377 181.778 267.078 181.815 266.757L185.258 236.46C185.281 236.259 185.26 236.055 185.197 235.863L162.354 165.758C162.259 165.466 162.071 165.213 161.818 165.037C161.566 164.861 161.263 164.772 160.956 164.784C160.648 164.796 160.353 164.908 160.115 165.103C159.877 165.297 159.709 165.564 159.637 165.863Z" fill="#D0CDE1"/>
<path d="M161.654 167.775L156.589 187.191L178.539 258.104L183.604 236.155L161.654 167.775Z" fill="#F2F2F2"/>
<path d="M272.245 273.3C271.401 275.833 184.448 272.456 183.604 271.612C182.868 270.554 182.245 269.423 181.747 268.235C180.953 266.546 180.227 264.858 180.227 264.858L183.604 237.523L269.713 234.467C269.713 234.467 271.866 257.632 272.305 268.235C272.454 269.921 272.434 271.618 272.245 273.3Z" fill="#D0CDE1"/>
<path opacity="0.1" d="M194.578 241.22L192.89 264.858H230.879V241.22H194.578Z" fill="black"/>
<path opacity="0.1" d="M243.542 248.818L243.315 248.773L244.386 258.949H265.492V248.818H243.542Z" fill="black"/>
<path opacity="0.1" d="M272.245 273.3C271.401 275.833 184.448 272.456 183.604 271.612C182.868 270.554 182.245 269.423 181.747 268.235H272.305C272.454 269.921 272.434 271.618 272.245 273.3Z" fill="black"/>
<path d="M321.465 0C318.405 4.3692 313.871 7.48644 308.696 8.77802C299.767 11.169 308.623 24.5869 308.623 24.5869C308.623 24.5869 305.403 19.7076 310.048 14.5404C314.693 9.37317 322.168 5.84049 321.465 0Z" fill="#FB8F8A"/>
<path d="M307.041 39.0882C313.272 39.0882 318.323 34.0368 318.323 27.8056C318.323 21.5744 313.272 16.5231 307.041 16.5231C300.809 16.5231 295.758 21.5744 295.758 27.8056C295.758 34.0368 300.809 39.0882 307.041 39.0882Z" fill="#FB8F8A"/>
<path d="M321.445 37.2623C312.248 33.7834 296.933 32.0194 289.053 33.2252L290.134 25.3347C297.709 29.2496 312.954 31.0894 322.526 29.3718L321.445 37.2623Z" fill="#212529"/>
<path d="M303.648 40.0867C303.648 40.0867 292.121 59.2604 265.316 66.4381C238.511 73.6159 265.097 113.896 265.097 113.896C265.097 113.896 255.429 99.2487 269.373 83.7368C283.317 68.2248 305.757 57.6197 303.648 40.0867Z" fill="#FB8F8A"/>
<path d="M304.563 38.9216C304.563 38.9216 315.637 65.2576 327.794 67.7476C339.952 70.2375 339.029 111.851 320.017 118.091C320.017 118.091 333.881 93.6955 322.03 77.3344C310.18 60.9734 302.695 48.0397 304.563 38.9216Z" fill="#FB8F8A"/>
<path opacity="0.1" d="M298.751 281.02C301.221 285.69 304.121 290.54 304.611 292.5C304.941 293.83 308.601 293.06 314.361 290.89C325.911 286.52 345.931 276.51 364.611 266.5C365.472 266.043 366.288 265.508 367.051 264.9C366.921 264.11 366.771 263.31 366.611 262.5C362.021 239.55 369.231 184.58 368.121 163.34L359.611 160.5L342.611 176.5V244.5C342.611 244.5 298.611 268.5 295.611 270.5C294.081 271.52 296.191 276.17 298.751 281.02Z" fill="black" fill-opacity="0.43"/>
<path d="M261.611 226.5L234.611 240.5C234.611 240.5 218.611 223.5 208.611 236.5C198.611 249.5 237.611 253.5 237.611 253.5C237.611 253.5 271.611 245.5 272.611 234.5C273.611 223.5 261.611 226.5 261.611 226.5Z" fill="#FFB8B8"/>
<path d="M306.611 263.5L290.611 267.5C290.611 267.5 272.611 245.5 253.611 253.5C234.611 261.5 277.611 277.5 277.611 277.5C277.611 277.5 300.611 289.5 309.611 279.5C318.611 269.5 306.611 263.5 306.611 263.5Z" fill="#FFB8B8"/>
<path d="M271.611 131.5C270.611 132.5 259.611 140.5 259.611 140.5C259.611 140.5 256.611 178.5 260.611 186.5C264.611 194.5 267.611 194.5 264.611 198.5C261.611 202.5 257.611 199.5 261.611 206.5C265.611 213.5 269.611 212.5 266.611 215.5C263.611 218.5 264.611 219.5 264.611 219.5L252.611 229.5C252.611 229.5 259.973 241.226 269.292 240.363C278.611 239.5 286.611 194.5 286.611 194.5L271.611 131.5Z" fill="#1B1F3B"/>
<path d="M359.611 155.5L368.611 158.5C368.611 158.5 392.611 246.5 364.611 261.5C336.611 276.5 305.611 291.5 304.611 287.5C303.611 283.5 292.611 267.5 295.611 265.5C298.611 263.5 342.611 239.5 342.611 239.5V171.5L359.611 155.5Z" fill="#1B1F3B"/>
<path opacity="0.1" d="M346.11 192L348.11 240L295.11 265L344.11 240L346.11 192Z" fill="#E0E0E0"/>
</svg>
