<svg width="547" height="759" viewBox="0 0 547 759" fill="none" xmlns="http://www.w3.org/2000/svg">
<path d="M118 758.864H115L121 357.864H124L118 758.864Z" fill="#3F3D56"/>
<path d="M200 758.864H197L191 357.864H194L200 758.864Z" fill="#3F3D56"/>
<path d="M192 365.865H122V368.865H192V365.865Z" fill="#3F3D56"/>
<path d="M192 417.865H122V420.865H192V417.865Z" fill="#3F3D56"/>
<path d="M194 469.865H121V472.865H194V469.865Z" fill="#3F3D56"/>
<path d="M195 521.865H121V524.865H195V521.865Z" fill="#3F3D56"/>
<path d="M196 573.865H120V576.865H196V573.865Z" fill="#3F3D56"/>
<path d="M196 625.865H119V628.865H196V625.865Z" fill="#3F3D56"/>
<path d="M197 677.865H118V680.865H197V677.865Z" fill="#3F3D56"/>
<path d="M198 729.865H116V732.865H198V729.865Z" fill="#3F3D56"/>
<path d="M153.667 553.23C176.87 553.23 195.679 534.42 195.679 511.217C195.679 488.015 176.87 469.205 153.667 469.205C130.464 469.205 111.655 488.015 111.655 511.217C111.655 534.42 130.464 553.23 153.667 553.23Z" fill="#2F2E41"/>
<path d="M178.379 540.256L165.82 542.529L169.893 565.031L182.452 562.758L178.379 540.256Z" fill="#2F2E41"/>
<path d="M153.261 544.803L140.702 547.076L144.775 569.578L157.334 567.304L153.261 544.803Z" fill="#2F2E41"/>
<path d="M151.442 574.309C155.925 570.513 158.405 566.073 156.981 564.392C155.557 562.711 150.77 564.426 146.287 568.222C141.804 572.018 139.325 576.458 140.748 578.139C142.172 579.82 146.96 578.106 151.442 574.309Z" fill="#2F2E41"/>
<path d="M176.037 569.857C180.52 566.061 183 561.62 181.576 559.939C180.152 558.258 175.364 559.973 170.882 563.77C166.399 567.566 163.919 572.006 165.343 573.687C166.767 575.368 171.555 573.653 176.037 569.857Z" fill="#2F2E41"/>
<path d="M150.726 515.3C158.656 515.3 165.084 508.871 165.084 500.941C165.084 493.011 158.656 486.582 150.726 486.582C142.796 486.582 136.367 493.011 136.367 500.941C136.367 508.871 142.796 515.3 150.726 515.3Z" fill="white"/>
<path d="M144.824 500.58C147.468 500.58 149.611 498.438 149.611 495.794C149.611 493.151 147.468 491.008 144.824 491.008C142.181 491.008 140.038 493.151 140.038 495.794C140.038 498.438 142.181 500.58 144.824 500.58Z" fill="#3F3D56"/>
<path d="M186.809 465.512C187.441 449.959 174.036 436.785 156.868 436.088C139.7 435.39 125.271 447.434 124.639 462.987C124.008 478.541 135.941 482.075 153.109 482.772C170.277 483.469 186.177 481.066 186.809 465.512Z" fill="#3755BE"/>
<path d="M135.35 508.257C136.163 504.707 127.656 499.728 116.348 497.136C105.04 494.544 95.2131 495.32 94.3994 498.87C93.5857 502.42 102.093 507.399 113.401 509.991C124.709 512.583 134.536 511.807 135.35 508.257Z" fill="#2F2E41"/>
<path d="M217.818 521.971C218.632 518.421 210.125 513.442 198.816 510.85C187.508 508.258 177.682 509.035 176.868 512.585C176.054 516.135 184.562 521.114 195.87 523.706C207.178 526.298 217.005 525.521 217.818 521.971Z" fill="#2F2E41"/>
<path d="M165.206 527.774C165.432 529.011 165.412 530.281 165.147 531.51C164.883 532.74 164.378 533.905 163.663 534.939C162.948 535.974 162.036 536.857 160.979 537.539C159.922 538.221 158.741 538.688 157.504 538.913C156.266 539.138 154.997 539.117 153.768 538.852C152.538 538.586 151.373 538.081 150.34 537.365C149.306 536.649 148.423 535.736 147.742 534.679C147.061 533.621 146.595 532.44 146.371 531.203L146.367 531.184C145.425 525.982 149.448 524.141 154.65 523.2C159.852 522.258 164.264 522.572 165.206 527.774Z" fill="white"/>
<path d="M226.373 277C316.373 300.482 488.873 246.257 507.873 185" stroke="#2F2E41" stroke-width="2" stroke-miterlimit="10"/>
<path d="M105.482 24.9999C105.482 24.9999 235.482 -11.0001 243.482 105C251.482 221 136.373 254 226.373 277" stroke="#2F2E41" stroke-width="2" stroke-miterlimit="10"/>
<path d="M230.212 184.607C251.386 184.607 268.551 168.354 268.551 148.304C268.551 128.254 251.386 112 230.212 112C209.038 112 191.873 128.254 191.873 148.304C191.873 168.354 209.038 184.607 230.212 184.607Z" fill="#FFD66E"/>
<path d="M246.642 145.409H233.269C232.052 145.409 230.887 144.952 230.027 144.138C229.167 143.323 228.683 142.219 228.683 141.068V128.405C228.683 128.357 228.674 128.31 228.655 128.266C228.635 128.222 228.607 128.183 228.572 128.149C228.536 128.115 228.494 128.089 228.448 128.07C228.401 128.052 228.352 128.043 228.302 128.043H219.514C217.892 128.043 216.337 128.653 215.191 129.738C214.044 130.824 213.401 132.296 213.401 133.832V162.775C213.401 164.311 214.044 165.783 215.191 166.869C216.337 167.954 217.892 168.564 219.514 168.564H240.91C242.532 168.564 244.087 167.954 245.233 166.869C246.38 165.783 247.023 164.311 247.023 162.775V145.771C247.023 145.723 247.014 145.676 246.995 145.633C246.975 145.589 246.947 145.549 246.912 145.515C246.876 145.482 246.834 145.455 246.788 145.437C246.741 145.419 246.692 145.409 246.642 145.409ZM237.854 159.881H222.57C222.165 159.881 221.777 159.729 221.489 159.457C221.203 159.186 221.042 158.818 221.042 158.434C221.042 158.05 221.203 157.682 221.489 157.411C221.777 157.139 222.165 156.987 222.57 156.987H237.854C238.259 156.987 238.647 157.139 238.935 157.411C239.221 157.682 239.382 158.05 239.382 158.434C239.382 158.818 239.221 159.186 238.935 159.457C238.647 159.729 238.259 159.881 237.854 159.881ZM237.854 152.645H222.57C222.165 152.645 221.777 152.493 221.489 152.221C221.203 151.95 221.042 151.582 221.042 151.198C221.042 150.814 221.203 150.446 221.489 150.175C221.777 149.903 222.165 149.751 222.57 149.751H237.854C238.259 149.751 238.647 149.903 238.935 150.175C239.221 150.446 239.382 150.814 239.382 151.198C239.382 151.582 239.221 151.95 238.935 152.221C238.647 152.493 238.259 152.645 237.854 152.645Z" fill="white"/>
<path d="M245.803 142.206L232.066 129.199C232.039 129.174 232.005 129.157 231.968 129.15C231.931 129.143 231.893 129.146 231.858 129.16C231.824 129.174 231.794 129.197 231.772 129.226C231.752 129.256 231.741 129.291 231.741 129.327V141.068C231.741 141.452 231.901 141.82 232.188 142.091C232.475 142.362 232.863 142.515 233.268 142.515H245.668C245.706 142.515 245.743 142.504 245.774 142.484C245.805 142.464 245.83 142.436 245.844 142.403C245.858 142.37 245.862 142.334 245.854 142.299C245.848 142.264 245.829 142.232 245.803 142.206Z" fill="white"/>
<path d="M97.2119 72.6072C118.386 72.6072 135.551 56.3532 135.551 36.3036C135.551 16.254 118.386 0 97.2119 0C76.0381 0 58.8727 16.254 58.8727 36.3036C58.8727 56.3532 76.0381 72.6072 97.2119 72.6072Z" fill="#FB8F8A"/>
<path d="M114.069 21.4585V21.4515C114.004 21.1851 113.862 20.9402 113.659 20.7448C113.455 20.5501 113.198 20.4126 112.917 20.3493C110.648 19.8248 107.08 20.3833 103.125 21.8833C99.3221 23.2829 95.8422 25.3692 92.8795 28.0263C92.0703 28.788 91.319 29.6029 90.6305 30.4649C89.1084 30.3652 87.583 30.597 86.1717 31.1431C81.7758 32.9745 80.5204 37.6623 80.1859 39.5871C80.1378 39.8606 80.1566 40.1409 80.2414 40.4059C80.3262 40.6716 80.4747 40.9149 80.6754 41.1173C80.8752 41.3196 81.1224 41.4749 81.3965 41.5722C81.6705 41.6696 81.965 41.7051 82.2562 41.6773H82.266L87.1629 41.1713C87.1686 41.2308 87.1751 41.2849 87.1808 41.3343C87.2436 41.899 87.5095 42.4265 87.9345 42.8282L90.3238 45.0921C90.7472 45.4946 91.3043 45.7472 91.9006 45.8066L92.0646 45.8228L91.5311 50.4535V50.4627C91.5058 50.6983 91.5294 50.9363 91.6004 51.1633C91.6722 51.3897 91.7897 51.6013 91.9479 51.7851C92.1053 51.9682 92.2995 52.1211 92.5189 52.2339C92.7392 52.3459 92.9798 52.417 93.2286 52.4409C93.2873 52.4463 93.3461 52.4502 93.4048 52.4502C93.5109 52.4502 93.6161 52.4424 93.7205 52.4262C95.7647 52.1142 100.713 50.9401 102.642 46.7559C103.214 45.4235 103.459 43.9853 103.362 42.5501C104.275 41.8997 105.139 41.1876 105.946 40.4205C108.75 37.6414 110.956 34.3725 112.441 30.7955C114.016 27.0933 114.609 23.6885 114.069 21.4585ZM105.919 34.0643C105.293 34.6576 104.496 35.0615 103.628 35.2253C102.76 35.389 101.861 35.3056 101.043 34.9851C100.226 34.6653 99.5268 34.1223 99.035 33.4263C98.5431 32.7296 98.2796 31.9108 98.2796 31.0728C98.2788 30.2347 98.5406 29.4159 99.0325 28.7184C99.5236 28.0217 100.222 27.4787 101.039 27.1574C101.857 26.8361 102.756 26.7519 103.624 26.9148C104.492 27.0778 105.289 27.481 105.916 28.0735L105.919 28.0766C106.757 28.8582 107.233 29.9242 107.242 31.0388C107.251 32.1534 106.792 33.2255 105.966 34.0195L105.919 34.0643Z" fill="white"/>
<path d="M90.0497 45.7063C89.7553 45.6715 89.4575 45.7403 89.2128 45.8986C88.7266 46.2137 88.2372 46.525 87.7445 46.8286C87.53 46.9591 87.2754 47.0178 87.0226 46.9947C86.7689 46.9723 86.5307 46.8695 86.3463 46.7027C86.162 46.5366 86.0421 46.3165 86.0054 46.0778C85.9695 45.8391 86.0184 45.5958 86.1457 45.3873L87.0707 43.8733C87.2028 43.6902 87.2763 43.4748 87.2828 43.2531C87.2885 43.0306 87.2273 42.812 87.1058 42.6228C86.9834 42.4328 86.8064 42.2806 86.5959 42.184C86.3847 42.0875 86.1489 42.0504 85.9165 42.0774C84.8895 42.2003 83.9359 42.6429 83.2041 43.3365C82.9252 43.6007 82.0784 44.404 81.6224 47.4635C81.4919 48.3425 81.4104 49.227 81.3769 50.1145C81.3728 50.2659 81.4006 50.4165 81.4577 50.5579C81.5148 50.6992 81.6012 50.8282 81.7113 50.9379C81.8215 51.0483 81.9536 51.1364 82.0996 51.1974C82.2457 51.2592 82.4039 51.2932 82.5638 51.2971C82.5736 51.2971 82.5842 51.2971 82.5948 51.2971H82.6258C83.5631 51.2654 84.4979 51.1889 85.427 51.0669C88.6597 50.6343 89.5081 49.831 89.7871 49.5668C90.5221 48.874 90.9886 47.9664 91.1102 46.9908C91.1493 46.6872 91.0596 46.3814 90.8614 46.1404C90.6624 45.9001 90.3703 45.7433 90.0497 45.7063Z" fill="white"/>
<path d="M366.212 302.607C387.386 302.607 404.551 286.353 404.551 266.304C404.551 246.254 387.386 230 366.212 230C345.038 230 327.873 246.254 327.873 266.304C327.873 286.353 345.038 302.607 366.212 302.607Z" fill="#ABABAB"/>
<path d="M368.049 265.353L366.064 263.473C365.609 263.042 364.993 262.8 364.35 262.798C363.708 262.797 363.09 263.036 362.633 263.464L348.835 275.522C348.329 275.946 348.019 276.543 347.972 277.182C347.958 277.499 348.012 277.816 348.133 278.112C348.253 278.409 348.437 278.678 348.672 278.905L351.636 281.743L351.642 281.747C352.1 282.18 352.72 282.424 353.367 282.425H353.456C353.792 282.408 354.119 282.327 354.421 282.19C354.724 282.052 354.994 281.859 355.217 281.621L368.04 268.616C368.498 268.186 368.757 267.601 368.76 266.99C368.763 266.379 368.509 265.793 368.055 265.359L368.049 265.353Z" fill="white"/>
<path d="M383.998 261.553L383.974 261.531L381.37 259.09C381.217 258.946 381.036 258.832 380.837 258.755C380.637 258.677 380.424 258.638 380.208 258.639C379.86 258.64 379.52 258.744 379.237 258.937C379.237 258.906 379.241 258.876 379.243 258.849C379.348 258.219 379.208 257.574 378.848 257.034C378.274 256.302 377.644 255.61 376.963 254.965L376.957 254.96C375.053 253.23 372.815 251.863 370.366 250.934C369.085 250.436 367.714 250.181 366.331 250.182C364.54 250.166 362.799 250.743 361.409 251.814C361.013 252.171 360.653 252.562 360.331 252.981C360.178 253.182 360.096 253.424 360.1 253.672C360.104 253.92 360.192 254.16 360.351 254.357C360.51 254.554 360.732 254.697 360.984 254.764C361.236 254.832 361.504 254.822 361.749 254.733C361.962 254.658 362.18 254.595 362.401 254.544C362.862 254.452 363.334 254.424 363.803 254.461C364.776 254.557 365.709 254.881 366.516 255.403C366.969 255.765 367.329 256.218 367.57 256.73C367.81 257.243 367.925 257.8 367.904 258.361C367.567 259.271 367.05 260.113 366.384 260.843C366.206 261.064 366.12 261.339 366.139 261.617C366.16 261.895 366.286 262.157 366.494 262.353L369.109 264.831C369.33 265.039 369.625 265.16 369.937 265.168C370.247 265.177 370.55 265.072 370.782 264.875C371.521 264.25 372.648 263.307 373.041 263.076C373.378 262.862 373.759 262.72 374.159 262.658C374.456 262.631 374.757 262.69 375.017 262.829C375.019 262.842 375.017 262.854 375.013 262.866C375.009 262.878 375.002 262.889 374.993 262.898L374.855 263.022L374.833 263.042C374.525 263.332 374.352 263.726 374.351 264.137C374.35 264.548 374.522 264.942 374.828 265.233L374.836 265.241L377.44 267.681C377.593 267.825 377.774 267.939 377.973 268.016C378.173 268.093 378.386 268.133 378.601 268.131C379.034 268.132 379.45 267.971 379.759 267.685L383.977 263.739C383.992 263.725 384.006 263.711 384.019 263.697C384.302 263.403 384.457 263.018 384.454 262.621C384.45 262.224 384.287 261.842 383.998 261.553Z" fill="white"/>
<path d="M508.212 215.607C529.386 215.607 546.551 199.353 546.551 179.304C546.551 159.254 529.386 143 508.212 143C487.038 143 469.873 159.254 469.873 179.304C469.873 199.353 487.038 215.607 508.212 215.607Z" fill="#3755BE"/>
<path d="M495.017 199.031H492.24C491.687 199.031 491.157 198.823 490.766 198.453C490.376 198.083 490.156 197.581 490.156 197.058V185.222C490.156 184.699 490.376 184.197 490.766 183.827C491.157 183.457 491.687 183.249 492.24 183.249H495.017C495.57 183.249 496.1 183.457 496.491 183.827C496.881 184.197 497.101 184.699 497.101 185.222V197.058C497.101 197.581 496.881 198.083 496.491 198.453C496.1 198.823 495.57 199.031 495.017 199.031Z" fill="white"/>
<path d="M514.462 199.031H511.684C511.131 199.031 510.602 198.823 510.211 198.453C509.82 198.083 509.601 197.581 509.601 197.058V177.331C509.601 176.808 509.82 176.306 510.211 175.936C510.602 175.566 511.131 175.358 511.684 175.358H514.462C515.014 175.358 515.544 175.566 515.935 175.936C516.326 176.306 516.545 176.808 516.545 177.331V197.058C516.545 197.581 516.326 198.083 515.935 198.453C515.544 198.823 515.014 199.031 514.462 199.031Z" fill="white"/>
<path d="M524.185 199.031H521.406C520.854 199.031 520.324 198.823 519.933 198.453C519.542 198.083 519.323 197.581 519.323 197.058V168.124C519.323 167.602 519.542 167.1 519.933 166.73C520.324 166.36 520.854 166.152 521.406 166.152H524.185C524.737 166.152 525.267 166.36 525.658 166.73C526.048 167.1 526.268 167.602 526.268 168.124V197.058C526.268 197.581 526.048 198.083 525.658 198.453C525.267 198.823 524.737 199.031 524.185 199.031Z" fill="white"/>
<path d="M504.739 199.031H501.962C501.41 199.031 500.879 198.823 500.489 198.453C500.098 198.083 499.878 197.581 499.878 197.058V161.549C499.878 161.026 500.098 160.524 500.489 160.154C500.879 159.784 501.41 159.576 501.962 159.576H504.739C505.292 159.576 505.822 159.784 506.213 160.154C506.603 160.524 506.823 161.026 506.823 161.549V197.058C506.823 197.317 506.769 197.574 506.664 197.813C506.56 198.053 506.407 198.27 506.213 198.453C506.019 198.636 505.79 198.782 505.537 198.881C505.284 198.98 505.013 199.031 504.739 199.031Z" fill="white"/>
<path d="M200.373 277.907C204.619 266.798 205.234 256.712 201.747 255.379C198.259 254.046 191.99 261.971 187.744 273.08C183.498 284.189 182.883 294.275 186.37 295.608C189.858 296.941 196.127 289.016 200.373 277.907Z" fill="#2F2E41"/>
<path d="M196.763 314.914C200.573 291.436 184.628 269.314 161.15 265.504C137.672 261.694 115.55 277.639 111.74 301.117C107.93 324.595 123.874 346.717 147.353 350.527C170.831 354.337 192.953 338.393 196.763 314.914Z" fill="#2F2E41"/>
<path d="M147.71 341.815H134.626V365.257H147.71V341.815Z" fill="#2F2E41"/>
<path d="M173.877 341.815H160.793V365.257H173.877V341.815Z" fill="#2F2E41"/>
<path d="M145.529 369.618C151.551 369.618 156.432 367.788 156.432 365.529C156.432 363.271 151.551 361.441 145.529 361.441C139.507 361.441 134.626 363.271 134.626 365.529C134.626 367.788 139.507 369.618 145.529 369.618Z" fill="#2F2E41"/>
<path d="M171.696 369.073C177.718 369.073 182.6 367.242 182.6 364.984C182.6 362.726 177.718 360.896 171.696 360.896C165.675 360.896 160.793 362.726 160.793 364.984C160.793 367.242 165.675 369.073 171.696 369.073Z" fill="#2F2E41"/>
<path d="M112.475 267.964C108.997 252.39 120.113 236.654 137.303 232.815C154.493 228.977 171.248 238.49 174.725 254.064C178.203 269.638 166.81 275.382 149.62 279.22C132.43 283.058 115.952 283.538 112.475 267.964Z" fill="#3755BE"/>
<path d="M125.2 297.26C126.799 293.887 119.386 287.02 108.64 281.924C97.8948 276.828 87.8869 275.431 86.287 278.804C84.6871 282.178 92.101 289.044 102.846 294.14C113.592 299.236 123.6 300.633 125.2 297.26Z" fill="#2F2E41"/>
<path d="M63.8727 452.587C63.8727 452.587 102.945 441.767 105.349 476.631C107.754 511.496 73.1899 521.414 100.24 528.327" stroke="#2F2E41" stroke-width="2" stroke-miterlimit="10"/>
<path d="M39.2604 483.12C60.4614 483.12 77.6482 466.751 77.6482 446.56C77.6482 426.369 60.4614 410 39.2604 410C18.0595 410 0.872681 426.369 0.872681 446.56C0.872681 466.751 18.0595 483.12 39.2604 483.12Z" fill="#1B1F3B"/>
<path d="M45.2991 444.301C44.9982 444.301 44.7039 444.216 44.4537 444.057C44.2034 443.899 44.0084 443.674 43.8932 443.411C43.778 443.147 43.7479 442.858 43.8066 442.578C43.8653 442.298 44.0102 442.042 44.2231 441.84L47.7123 438.536L44.2231 435.232C43.9376 434.962 43.7773 434.595 43.7773 434.213C43.7773 433.831 43.9376 433.464 44.2231 433.194C44.5084 432.924 44.8955 432.772 45.2991 432.772C45.7027 432.772 46.0898 432.924 46.3752 433.194L50.9407 437.517C51.082 437.651 51.1941 437.81 51.2705 437.984C51.3471 438.16 51.3864 438.347 51.3864 438.536C51.3864 438.725 51.3471 438.913 51.2705 439.088C51.1941 439.262 51.082 439.421 50.9407 439.555L46.3752 443.878C46.2341 444.012 46.0663 444.118 45.8817 444.191C45.697 444.263 45.499 444.301 45.2991 444.301Z" fill="white"/>
<path d="M20.9501 448.623C20.7503 448.623 20.5524 448.586 20.3678 448.513C20.1831 448.441 20.0154 448.335 19.874 448.201C19.7327 448.068 19.6206 447.908 19.5441 447.734C19.4677 447.559 19.4283 447.372 19.4283 447.182V445.741C19.4402 443.452 20.4054 441.26 22.1142 439.641C23.8231 438.022 26.1375 437.108 28.5547 437.095H48.3428C48.7464 437.095 49.1335 437.247 49.4189 437.517C49.7043 437.787 49.8647 438.154 49.8647 438.536C49.8647 438.918 49.7043 439.285 49.4189 439.555C49.1335 439.825 48.7464 439.977 48.3428 439.977H28.5592C26.9469 439.987 25.4034 440.597 24.2638 441.677C23.1242 442.757 22.4803 444.219 22.4719 445.746V447.182C22.4719 447.372 22.4326 447.559 22.3561 447.734C22.2797 447.908 22.1675 448.068 22.0262 448.201C21.8849 448.335 21.7171 448.441 21.5325 448.513C21.3479 448.586 21.15 448.623 20.9501 448.623Z" fill="white"/>
<path d="M33.1247 460.151C32.9248 460.151 32.7268 460.114 32.5421 460.042C32.3575 459.97 32.1897 459.863 32.0486 459.73L27.4831 455.406C27.3418 455.273 27.2298 455.114 27.1532 454.939C27.0767 454.764 27.0374 454.577 27.0374 454.388C27.0374 454.198 27.0767 454.011 27.1532 453.836C27.2298 453.661 27.3418 453.502 27.4831 453.369L32.0486 449.045C32.3341 448.775 32.721 448.624 33.1244 448.625C33.5278 448.625 33.9145 448.776 34.1998 449.046C34.4849 449.317 34.6452 449.683 34.6455 450.064C34.6456 450.447 34.4857 450.813 34.2007 451.083L30.7115 454.388L34.2007 457.691C34.4136 457.893 34.5585 458.15 34.6172 458.43C34.6759 458.708 34.6458 458.999 34.5306 459.261C34.4154 459.525 34.2204 459.75 33.9701 459.909C33.7199 460.067 33.4256 460.151 33.1247 460.151Z" fill="white"/>
<path d="M30.081 455.828C29.6774 455.828 29.2903 455.677 29.005 455.406C28.7196 455.136 28.5593 454.77 28.5593 454.388C28.5593 454.005 28.7196 453.638 29.005 453.369C29.2903 453.098 29.6774 452.946 30.081 452.946H49.8646C51.4769 452.937 53.0203 452.327 54.16 451.247C55.2997 450.166 55.9435 448.705 55.9518 447.178V445.741C55.9518 445.359 56.1122 444.993 56.3975 444.722C56.683 444.452 57.07 444.301 57.4737 444.301C57.8773 444.301 58.2643 444.452 58.5498 444.722C58.8352 444.993 58.9955 445.359 58.9955 445.741V447.182C58.9836 449.471 58.0183 451.663 56.3095 453.282C54.6007 454.901 52.2863 455.816 49.8691 455.828H30.081Z" fill="white"/>
</svg>
